<svg width="484" height="130" viewBox="0 0 484 130" fill="none" xmlns="http://www.w3.org/2000/svg">
<rect y="16" width="189" height="101" rx="15" fill="#BF5656"/>
<path d="M19.79 96.63C18.53 96.63 17.54 96.3 16.82 95.64C16.16 94.92 15.83 93.9 15.83 92.58V36.6C15.83 35.28 16.16 34.29 16.82 33.63C17.54 32.91 18.56 32.55 19.88 32.55H52.55C53.57 32.55 54.35 32.82 54.89 33.36C55.43 33.9 55.7 34.65 55.7 35.61C55.7 36.63 55.43 37.41 54.89 37.95C54.35 38.49 53.57 38.76 52.55 38.76H23.21V60.9H50.66C51.68 60.9 52.46 61.17 53 61.71C53.6 62.25 53.9 63 53.9 63.96C53.9 64.98 53.6 65.76 53 66.3C52.46 66.84 51.68 67.11 50.66 67.11H23.21V92.58C23.21 95.28 22.07 96.63 19.79 96.63ZM79.1366 96.81C74.8166 96.81 71.5166 95.49 69.2366 92.85C66.9566 90.21 65.8166 86.43 65.8166 81.51V35.61C65.8166 34.41 66.1166 33.51 66.7166 32.91C67.3166 32.25 68.2166 31.92 69.4166 31.92C70.5566 31.92 71.4566 32.25 72.1166 32.91C72.7766 33.51 73.1066 34.41 73.1066 35.61V80.97C73.1066 84.21 73.7366 86.64 74.9966 88.26C76.3166 89.82 78.2366 90.6 80.7566 90.6C81.2966 90.6 81.7766 90.57 82.1966 90.51C82.6166 90.45 83.0366 90.42 83.4566 90.42C84.1166 90.36 84.5666 90.51 84.8066 90.87C85.1066 91.23 85.2566 91.95 85.2566 93.03C85.2566 94.11 85.0166 94.92 84.5366 95.46C84.0566 96 83.2766 96.36 82.1966 96.54C81.7166 96.6 81.2066 96.66 80.6666 96.72C80.1266 96.78 79.6166 96.81 79.1366 96.81ZM111.718 96.81C107.098 96.81 103.108 95.91 99.748 94.11C96.448 92.25 93.868 89.64 92.008 86.28C90.208 82.92 89.308 78.9 89.308 74.22C89.308 69.66 90.208 65.7 92.008 62.34C93.808 58.92 96.268 56.25 99.388 54.33C102.568 52.41 106.228 51.45 110.368 51.45C113.308 51.45 115.948 51.96 118.288 52.98C120.628 53.94 122.608 55.35 124.228 57.21C125.908 59.07 127.168 61.32 128.008 63.96C128.908 66.6 129.358 69.57 129.358 72.87C129.358 73.83 129.088 74.55 128.548 75.03C128.008 75.45 127.228 75.66 126.208 75.66H94.888V70.89H124.498L123.058 72.06C123.058 68.82 122.578 66.09 121.618 63.87C120.658 61.59 119.248 59.85 117.388 58.65C115.588 57.45 113.308 56.85 110.548 56.85C107.488 56.85 104.878 57.57 102.718 59.01C100.618 60.39 99.028 62.34 97.948 64.86C96.868 67.32 96.328 70.2 96.328 73.5V74.04C96.328 79.56 97.648 83.76 100.288 86.64C102.988 89.52 106.798 90.96 111.718 90.96C113.758 90.96 115.768 90.69 117.748 90.15C119.788 89.61 121.768 88.71 123.688 87.45C124.528 86.91 125.278 86.67 125.938 86.73C126.658 86.73 127.228 86.94 127.648 87.36C128.068 87.72 128.338 88.2 128.458 88.8C128.638 89.34 128.578 89.94 128.278 90.6C128.038 91.26 127.528 91.83 126.748 92.31C124.768 93.75 122.428 94.86 119.728 95.64C117.028 96.42 114.358 96.81 111.718 96.81ZM139.737 96.54C138.957 96.54 138.267 96.3 137.667 95.82C137.067 95.34 136.737 94.71 136.677 93.93C136.677 93.09 137.067 92.22 137.847 91.32L153.597 71.52V75.3L138.837 56.85C138.057 55.89 137.667 55.02 137.667 54.24C137.727 53.46 138.057 52.83 138.657 52.35C139.257 51.87 139.947 51.63 140.727 51.63C141.627 51.63 142.377 51.81 142.977 52.17C143.637 52.47 144.237 52.98 144.777 53.7L157.647 69.99H155.127L168.087 53.7C168.627 52.98 169.197 52.47 169.797 52.17C170.397 51.81 171.147 51.63 172.047 51.63C172.887 51.63 173.577 51.87 174.117 52.35C174.717 52.83 175.017 53.49 175.017 54.33C175.077 55.11 174.717 55.98 173.937 56.94L159.267 75.12V71.79L175.017 91.32C175.737 92.22 176.067 93.09 176.007 93.93C176.007 94.71 175.707 95.34 175.107 95.82C174.507 96.3 173.787 96.54 172.947 96.54C172.107 96.54 171.357 96.36 170.697 96C170.097 95.7 169.497 95.19 168.897 94.47L155.037 77.01H157.647L143.787 94.47C143.247 95.13 142.647 95.64 141.987 96C141.387 96.36 140.637 96.54 139.737 96.54Z" fill="white"/>
<path d="M219.98 96.855C215.293 96.855 211.24 95.8733 207.82 93.91C204.4 91.8833 201.772 89.065 199.935 85.455C198.098 81.7817 197.18 77.475 197.18 72.535C197.18 68.8617 197.687 65.5683 198.7 62.655C199.777 59.7417 201.297 57.2717 203.26 55.245C205.223 53.155 207.598 51.5717 210.385 50.495C213.235 49.4183 216.433 48.88 219.98 48.88C222.197 48.88 224.54 49.2283 227.01 49.925C229.48 50.6217 231.76 51.7617 233.85 53.345C234.547 53.8517 234.99 54.4533 235.18 55.15C235.37 55.7833 235.37 56.4483 235.18 57.145C235.053 57.8417 234.737 58.4433 234.23 58.95C233.787 59.3933 233.185 59.6467 232.425 59.71C231.728 59.7733 230.968 59.5517 230.145 59.045C228.625 57.905 227.01 57.0817 225.3 56.575C223.653 56.0683 222.07 55.815 220.55 55.815C218.207 55.815 216.117 56.195 214.28 56.955C212.507 57.715 210.987 58.8233 209.72 60.28C208.517 61.6733 207.598 63.415 206.965 65.505C206.332 67.5317 206.015 69.9067 206.015 72.63C206.015 78.0133 207.282 82.2567 209.815 85.36C212.348 88.4 215.927 89.92 220.55 89.92C222.07 89.92 223.653 89.6983 225.3 89.255C226.947 88.7483 228.562 87.925 230.145 86.785C230.968 86.2783 231.728 86.0883 232.425 86.215C233.122 86.2783 233.692 86.5633 234.135 87.07C234.642 87.5133 234.958 88.0833 235.085 88.78C235.212 89.4133 235.148 90.0783 234.895 90.775C234.705 91.4717 234.262 92.0417 233.565 92.485C231.538 94.005 229.322 95.1133 226.915 95.81C224.508 96.5067 222.197 96.855 219.98 96.855ZM264.542 96.855C259.539 96.855 255.232 95.905 251.622 94.005C248.076 92.0417 245.321 89.2867 243.357 85.74C241.394 82.13 240.412 77.8867 240.412 73.01C240.412 68.1967 241.362 63.985 243.262 60.375C245.226 56.765 247.886 53.9467 251.242 51.92C254.662 49.8933 258.557 48.88 262.927 48.88C266.031 48.88 268.817 49.4183 271.287 50.495C273.821 51.5083 275.974 52.9967 277.747 54.96C279.521 56.9233 280.851 59.33 281.737 62.18C282.687 64.9667 283.162 68.1333 283.162 71.68C283.162 72.6933 282.846 73.485 282.212 74.055C281.642 74.5617 280.787 74.815 279.647 74.815H247.157V69.305H277.462L275.847 70.635C275.847 67.3417 275.341 64.555 274.327 62.275C273.377 59.9317 271.952 58.1583 270.052 56.955C268.216 55.7517 265.904 55.15 263.117 55.15C260.077 55.15 257.481 55.8783 255.327 57.335C253.174 58.7283 251.527 60.7233 250.387 63.32C249.247 65.8533 248.677 68.7983 248.677 72.155V72.725C248.677 78.425 250.039 82.7317 252.762 85.645C255.486 88.5583 259.412 90.015 264.542 90.015C266.569 90.015 268.627 89.7617 270.717 89.255C272.871 88.7483 274.929 87.83 276.892 86.5C277.842 85.93 278.697 85.6767 279.457 85.74C280.281 85.74 280.946 85.9933 281.452 86.5C281.959 86.9433 282.276 87.5133 282.402 88.21C282.529 88.8433 282.434 89.54 282.117 90.3C281.801 91.06 281.199 91.725 280.312 92.295C278.222 93.7517 275.721 94.8917 272.807 95.715C269.957 96.475 267.202 96.855 264.542 96.855ZM308.449 96.855C303.699 96.855 300.089 95.4617 297.619 92.675C295.149 89.825 293.914 85.74 293.914 80.42V32.73C293.914 31.2733 294.294 30.1967 295.054 29.5C295.814 28.74 296.859 28.36 298.189 28.36C299.583 28.36 300.659 28.74 301.419 29.5C302.179 30.1967 302.559 31.2733 302.559 32.73V79.755C302.559 83.0483 303.224 85.5183 304.554 87.165C305.948 88.7483 307.911 89.54 310.444 89.54C311.014 89.54 311.521 89.54 311.964 89.54C312.408 89.4767 312.851 89.4133 313.294 89.35C313.991 89.2867 314.498 89.4767 314.814 89.92C315.131 90.3633 315.289 91.25 315.289 92.58C315.289 93.7833 315.004 94.7333 314.434 95.43C313.928 96.0633 313.073 96.475 311.869 96.665C311.299 96.7283 310.729 96.76 310.159 96.76C309.589 96.8233 309.019 96.855 308.449 96.855ZM337.024 96.855C332.274 96.855 328.664 95.4617 326.194 92.675C323.724 89.825 322.489 85.74 322.489 80.42V32.73C322.489 31.2733 322.869 30.1967 323.629 29.5C324.389 28.74 325.434 28.36 326.764 28.36C328.157 28.36 329.234 28.74 329.994 29.5C330.754 30.1967 331.134 31.2733 331.134 32.73V79.755C331.134 83.0483 331.799 85.5183 333.129 87.165C334.522 88.7483 336.485 89.54 339.019 89.54C339.589 89.54 340.095 89.54 340.539 89.54C340.982 89.4767 341.425 89.4133 341.869 89.35C342.565 89.2867 343.072 89.4767 343.389 89.92C343.705 90.3633 343.864 91.25 343.864 92.58C343.864 93.7833 343.579 94.7333 343.009 95.43C342.502 96.0633 341.647 96.475 340.444 96.665C339.874 96.7283 339.304 96.76 338.734 96.76C338.164 96.8233 337.594 96.855 337.024 96.855ZM371.974 96.855C366.971 96.855 362.664 95.905 359.054 94.005C355.507 92.0417 352.752 89.2867 350.789 85.74C348.826 82.13 347.844 77.8867 347.844 73.01C347.844 68.1967 348.794 63.985 350.694 60.375C352.657 56.765 355.317 53.9467 358.674 51.92C362.094 49.8933 365.989 48.88 370.359 48.88C373.462 48.88 376.249 49.4183 378.719 50.495C381.252 51.5083 383.406 52.9967 385.179 54.96C386.952 56.9233 388.282 59.33 389.169 62.18C390.119 64.9667 390.594 68.1333 390.594 71.68C390.594 72.6933 390.277 73.485 389.644 74.055C389.074 74.5617 388.219 74.815 387.079 74.815H354.589V69.305H384.894L383.279 70.635C383.279 67.3417 382.772 64.555 381.759 62.275C380.809 59.9317 379.384 58.1583 377.484 56.955C375.647 55.7517 373.336 55.15 370.549 55.15C367.509 55.15 364.912 55.8783 362.759 57.335C360.606 58.7283 358.959 60.7233 357.819 63.32C356.679 65.8533 356.109 68.7983 356.109 72.155V72.725C356.109 78.425 357.471 82.7317 360.194 85.645C362.917 88.5583 366.844 90.015 371.974 90.015C374.001 90.015 376.059 89.7617 378.149 89.255C380.302 88.7483 382.361 87.83 384.324 86.5C385.274 85.93 386.129 85.6767 386.889 85.74C387.712 85.74 388.377 85.9933 388.884 86.5C389.391 86.9433 389.707 87.5133 389.834 88.21C389.961 88.8433 389.866 89.54 389.549 90.3C389.232 91.06 388.631 91.725 387.744 92.295C385.654 93.7517 383.152 94.8917 380.239 95.715C377.389 96.475 374.634 96.855 371.974 96.855ZM405.621 96.665C404.291 96.665 403.246 96.285 402.486 95.525C401.726 94.765 401.346 93.6567 401.346 92.2V53.44C401.346 51.9833 401.726 50.9067 402.486 50.21C403.246 49.45 404.291 49.07 405.621 49.07C406.951 49.07 407.964 49.45 408.661 50.21C409.421 50.9067 409.801 51.9833 409.801 53.44V61.23L408.756 59.805C410.086 56.195 412.239 53.4717 415.216 51.635C418.256 49.7983 421.708 48.88 425.571 48.88C429.308 48.88 432.379 49.545 434.786 50.875C437.193 52.205 438.998 54.2317 440.201 56.955C441.404 59.6783 442.006 63.13 442.006 67.31V92.2C442.006 93.6567 441.626 94.765 440.866 95.525C440.169 96.285 439.124 96.665 437.731 96.665C436.338 96.665 435.261 96.285 434.501 95.525C433.741 94.765 433.361 93.6567 433.361 92.2V67.785C433.361 63.6683 432.569 60.66 430.986 58.76C429.403 56.86 426.869 55.91 423.386 55.91C419.333 55.91 416.071 57.1767 413.601 59.71C411.194 62.18 409.991 65.5367 409.991 69.78V92.2C409.991 95.1767 408.534 96.665 405.621 96.665ZM474.901 96.855C471.165 96.855 468.03 96.19 465.496 94.86C463.026 93.53 461.158 91.5983 459.891 89.065C458.688 86.5317 458.086 83.4283 458.086 79.755V56.385H452.006C450.866 56.385 449.98 56.1 449.346 55.53C448.713 54.8967 448.396 54.0733 448.396 53.06C448.396 51.9833 448.713 51.16 449.346 50.59C449.98 50.02 450.866 49.735 452.006 49.735H458.086V39.38C458.086 37.9233 458.466 36.8467 459.226 36.15C459.986 35.39 461.063 35.01 462.456 35.01C463.85 35.01 464.895 35.39 465.591 36.15C466.351 36.8467 466.731 37.9233 466.731 39.38V49.735H478.226C479.43 49.735 480.348 50.02 480.981 50.59C481.615 51.16 481.931 51.9833 481.931 53.06C481.931 54.0733 481.615 54.8967 480.981 55.53C480.348 56.1 479.43 56.385 478.226 56.385H466.731V78.995C466.731 82.4783 467.46 85.1067 468.916 86.88C470.373 88.6533 472.78 89.54 476.136 89.54C477.34 89.54 478.353 89.445 479.176 89.255C480 89.0017 480.728 88.875 481.361 88.875C481.931 88.8117 482.406 89.0017 482.786 89.445C483.23 89.8883 483.451 90.7117 483.451 91.915C483.451 92.8017 483.293 93.625 482.976 94.385C482.723 95.0817 482.185 95.5567 481.361 95.81C480.601 96.0633 479.588 96.285 478.321 96.475C477.055 96.7283 475.915 96.855 474.901 96.855Z" fill="#BF5656"/>
</svg>
